<?xml version="1.0" standalone="no"?>
<!DOCTYPE svg PUBLIC "-//W3C//DTD SVG 20010904//EN"
 "http://www.w3.org/TR/2001/REC-SVG-20010904/DTD/svg10.dtd">
<svg version="1.0" xmlns="http://www.w3.org/2000/svg"
 width="512.000000pt" height="512.000000pt" viewBox="0 0 512.000000 512.000000"
 preserveAspectRatio="xMidYMid meet">

<g transform="translate(0.000000,512.000000) scale(0.100000,-0.100000)"
fill="#000000" stroke="none">
<path d="M3726 5099 c-19 -15 -26 -30 -26 -55 0 -28 11 -45 64 -102 l65 -68
-284 -284 -284 -284 -154 152 c-166 163 -180 171 -231 131 -19 -15 -26 -30
-26 -56 0 -29 10 -45 65 -102 l64 -67 -189 -189 c-104 -104 -196 -203 -204
-219 -16 -34 -5 -81 24 -96 52 -28 66 -18 277 192 l203 203 343 -343 342 -342
-865 -865 -865 -865 -255 0 -255 0 -93 91 -92 90 0 247 0 247 556 555 c305
305 562 568 570 584 13 22 13 34 4 56 -14 33 -58 55 -92 45 -27 -8 -1152
-1127 -1174 -1167 -11 -22 -14 -82 -14 -300 l0 -273 -156 -155 c-85 -85 -162
-168 -170 -183 -19 -36 -11 -63 34 -109 l36 -38 -127 -128 c-70 -71 -127 -136
-127 -145 0 -50 51 -94 94 -81 11 3 76 61 143 127 l123 121 37 -36 c45 -43 74
-53 105 -37 13 6 95 83 183 170 l160 158 282 3 283 3 889 889 890 890 71 -68
c64 -60 75 -67 107 -64 47 4 79 43 69 85 -5 17 -63 84 -157 178 l-149 150 285
285 284 284 71 -68 c64 -60 75 -67 107 -64 47 4 79 43 69 85 -5 19 -136 157
-419 441 -443 442 -435 435 -491 391z m324 -444 l105 -105 -280 -280 c-154
-154 -284 -280 -290 -280 -5 0 -56 46 -112 102 l-103 103 282 282 c156 156
285 283 288 283 3 0 52 -47 110 -105z m-2772 -3012 l-113 -113 -57 57 -58 58
112 112 113 113 57 -57 58 -58 -112 -112z"/>
<path d="M2925 3735 c-48 -47 -38 -66 114 -218 135 -135 141 -140 173 -133 41
8 68 39 68 79 0 26 -20 51 -133 164 -116 116 -138 133 -166 133 -21 0 -41 -9
-56 -25z"/>
<path d="M2585 3395 c-48 -47 -38 -66 114 -218 135 -135 141 -140 173 -133 41
8 68 39 68 79 0 26 -20 51 -133 164 -116 116 -138 133 -166 133 -21 0 -41 -9
-56 -25z"/>
<path d="M2245 3055 c-48 -47 -38 -66 113 -217 151 -151 170 -161 217 -113 51
50 33 85 -123 238 -102 99 -125 117 -152 117 -20 0 -40 -9 -55 -25z"/>
<path d="M1913 2725 c-26 -19 -37 -59 -22 -88 16 -32 229 -246 261 -263 53
-28 108 8 108 70 0 25 -22 52 -133 163 -111 111 -138 133 -163 133 -16 0 -39
-7 -51 -15z"/>
<path d="M1595 2400 c-31 -12 -46 -35 -47 -70 -1 -28 16 -48 133 -166 124
-124 136 -134 171 -134 29 0 41 6 54 25 34 53 25 69 -117 210 -74 73 -143 135
-154 138 -11 3 -29 2 -40 -3z"/>
<path d="M761 863 c-21 -9 -147 -207 -201 -318 -83 -168 -94 -250 -50 -352 42
-95 117 -158 219 -183 149 -36 306 50 362 199 42 114 10 231 -129 465 -108
181 -141 213 -201 189z m123 -363 c90 -172 94 -229 22 -299 -100 -97 -266 -28
-266 109 0 50 26 114 99 243 l55 98 18 -23 c9 -13 42 -70 72 -128z"/>
</g>
</svg>
