<?xml version="1.0" standalone="no"?>
<!DOCTYPE svg PUBLIC "-//W3C//DTD SVG 20010904//EN"
 "http://www.w3.org/TR/2001/REC-SVG-20010904/DTD/svg10.dtd">
<svg version="1.0" xmlns="http://www.w3.org/2000/svg"
 width="500.000000pt" height="500.000000pt" viewBox="0 0 500.000000 500.000000"
 preserveAspectRatio="xMidYMid meet">

<g transform="translate(0.000000,500.000000) scale(0.100000,-0.100000)"
fill="#000000" stroke="none">
<path d="M3360 4726 c-88 -26 -153 -68 -253 -164 -314 -304 -470 -658 -402
-912 53 -200 214 -357 416 -405 247 -58 503 66 619 299 74 151 150 519 154
746 1 88 -3 115 -22 165 -44 116 -138 211 -251 255 -69 27 -197 35 -261 16z"/>
<path d="M1393 4695 c-134 -29 -240 -114 -301 -242 -36 -76 -37 -81 -36 -188
1 -115 31 -337 66 -490 30 -131 74 -249 120 -322 151 -239 469 -323 723 -190
78 41 191 154 233 233 73 139 81 305 22 469 -72 203 -177 363 -358 542 -135
134 -195 172 -306 192 -73 13 -84 13 -163 -4z"/>
<path d="M4423 3405 c-128 -35 -244 -126 -409 -320 -186 -220 -208 -264 -208
-420 1 -118 21 -182 88 -273 133 -180 370 -236 574 -136 86 42 217 162 344
316 112 135 135 171 159 251 17 54 21 87 17 160 -3 82 -8 102 -41 171 -94 199
-318 306 -524 251z"/>
<path d="M319 3367 c-81 -28 -136 -65 -196 -131 -85 -95 -117 -191 -111 -331
3 -82 8 -101 41 -166 75 -151 203 -290 368 -398 111 -73 181 -101 274 -108
136 -11 260 35 356 132 66 66 102 128 124 210 29 112 13 235 -43 339 -61 112
-338 368 -471 434 -69 34 -82 37 -175 40 -85 2 -112 -1 -167 -21z"/>
<path d="M2168 2991 c-2 -3 -34 -14 -73 -24 -187 -46 -312 -140 -491 -369
-425 -541 -737 -1020 -813 -1249 -30 -93 -54 -279 -47 -369 24 -302 221 -565
501 -669 136 -51 134 -51 1233 -51 964 0 1033 1 1118 19 204 42 378 157 488
324 99 151 143 312 133 482 -8 113 -69 348 -132 505 -154 383 -449 789 -829
1142 -124 115 -151 135 -240 178 -151 73 -200 80 -548 84 -164 1 -299 0 -300
-3z m622 -861 l0 -290 290 0 290 0 0 -285 0 -285 -290 0 -290 0 0 -290 0 -290
-285 0 -285 0 0 290 0 290 -287 2 -288 3 -3 283 -2 282 290 0 290 0 0 290 0
290 285 0 285 0 0 -290z"/>
</g>
</svg>
